#!OML:ASF H:\Dans Jumps\Project 1\Capture day 1\Session 1\subject.ASF
:FULLY-SPECIFIED
:DEGREES
368
root 0.795175 17.6774 10.8887 19.1675 -0.35276 -3.4198
lowerback 10.9838 0.746182 -1.00851
upperback 6.88929 0.893692 1.36883
thorax 0.985719 0.385113 1.89613
lowerneck -14.0282 0.606904 0.65536
upperneck 10.993 0.861658 -1.25736
head 5.62416 0.351428 -0.426928
rclavicle 8.64713e-015 4.07509e-015
rhumerus -38.0625 -23.9006 -66.8521
rradius 21.2585
rwrist 38.8916
rhand -23.3165 -26.4756
rfingers 7.12502
rthumb 3.13741 -56.4322
lclavicle 8.64713e-015 4.07509e-015
lhumerus -36.1756 2.9256 84.0736
lradius 18.4846
lwrist 16.5774
lhand -24.9547 -7.13902
lfingers 7.12502
lthumb 1.55534 22.8351
rfemur -31.5249 -0.219254 21.3235
rtibia 28.0229
rfoot -12.4107 -1.56206
rtoes 7.45538
lfemur -31.8614 6.87796 -19.0518
ltibia 31.0187
lfoot -10.8882 5.31218
ltoes -9.89361
369
root 0.790605 17.6792 10.9043 19.161 -0.366363 -3.42673
lowerback 10.9282 0.757861 -1.02679
upperback 6.86723 0.907907 1.37061
thorax 0.991881 0.391743 1.90723
lowerneck -14.0346 0.600524 0.64562
upperneck 11.0185 0.852089 -1.23474
head 5.63303 0.347976 -0.419044
rclavicle -1.31198e-014 5.96354e-016
rhumerus -37.864 -23.7185 -67.1146
rradius 21.3603
rwrist 38.6769
rhand -23.3419 -26.4714
rfingers 7.12502
rthumb 3.11296 -56.4284
lclavicle -1.31198e-014 5.96354e-016
lhumerus -35.9156 2.95261 83.9371
lradius 18.6471
lwrist 16.8222
lhand -25.2451 -7.48096
lfingers 7.12502
lthumb 1.27487 22.495
rfemur -31.4281 -0.235783 21.3512
rtibia 27.9639
rfoot -12.4402 -1.51835
rtoes 7.46532
lfemur -31.7385 6.84218 -19.0062
ltibia 30.9309
lfoot -10.896 5.36891
ltoes -9.89456
370
root 0.785967 17.6807 10.9193 19.154 -0.393069 -3.42132
lowerback 10.871 0.77278 -1.06076
upperback 6.84465 0.925028 1.36615
thorax 0.998143 0.39947 1.92042
lowerneck -14.0463 0.593839 0.639944
upperneck 11.0534 0.841776 -1.21507
head 5.64573 0.344068 -0.412804
rclavicle 2.38542e-015 8.74653e-015
rhumerus -37.6392 -23.5158 -67.406
rradius 21.4523
rwrist 38.5031
rhand -23.368 -26.441
rfingers 7.12502
rthumb 3.08772 -56.3984
lclavicle 2.38542e-015 8.74653e-015
lhumerus -35.6589 2.95057 83.8132
lradius 18.8348
lwrist 17.1183
lhand -25.6059 -7.92421
lfingers 7.12502
lthumb 0.926407 22.0535
rfemur -31.343 -0.25009 21.3637
rtibia 27.9202
rfoot -12.4718 -1.46789
rtoes 7.47473
lfemur -31.6087 6.81132 -18.978
ltibia 30.8295
lfoot -10.9001 5.43277
ltoes -9.87921
371
root 0.781235 17.682 10.9336 19.1461 -0.423992 -3.40653
lowerback 10.8169 0.787438 -1.10405
upperback 6.81824 0.941044 1.35748
thorax 0.998661 0.406531 1.93456
lowerneck -14.0579 0.588634 0.638605
upperneck 11.0924 0.833276 -1.20009
head 5.65979 0.340864 -0.408591
rclavicle 7.65321e-015 0
rhumerus -37.3944 -23.286 -67.7237
rradius 21.5395
rwrist 38.3622
rhand -23.3873 -26.3996
rfingers 7.12502
rthumb 3.06909 -56.3572
lclavicle 7.65321e-015 0
lhumerus -35.4151 2.91762 83.7036
lradius 19.0496
lwrist 17.4628
lhand -25.9804 -8.37791
lfingers 7.12502
lthumb 0.564673 21.6011
rfemur -31.2664 -0.263869 21.3654
rtibia 27.888
rfoot -12.505 -1.41738
rtoes 7.4833
lfemur -31.4761 6.78158 -18.9619
ltibia 30.7215
lfoot -10.9014 5.49862
ltoes -9.86107
372
root 0.776255 17.683 10.9472 19.133 -0.454701 -3.3863
lowerback 10.7696 0.801093 -1.15235
upperback 6.79025 0.955323 1.3465
thorax 0.993918 0.412687 1.94921
lowerneck -14.0662 0.585751 0.64429
upperneck 11.1289 0.827832 -1.19477
head 5.67266 0.338734 -0.408299
rclavicle 1.37161e-014 1.98785e-015
rhumerus -37.1348 -23.0281 -68.0662
rradius 21.6345
rwrist 38.242
rhand -23.3831 -26.359
rfingers 7.12502
rthumb 3.07309 -56.3166
lclavicle 1.37161e-014 1.98785e-015
lhumerus -35.186 2.84849 83.61
lradius 19.2905
lwrist 17.8544
lhand -26.3343 -8.79671
lfingers 7.12502
lthumb 0.222911 21.1829
rfemur -31.1917 -0.27264 21.3604
rtibia 27.8642
rfoot -12.5382 -1.37408
rtoes 7.49792
lfemur -31.3405 6.75173 -18.9512
ltibia 30.6119
lfoot -10.8996 5.56315
ltoes -9.8536
373
root 0.771094 17.684 10.96 19.1143 -0.478523 -3.36816
lowerback 10.7278 0.811857 -1.19568
upperback 6.76114 0.966245 1.33658
thorax 0.985182 0.417357 1.96244
lowerneck -14.0733 0.586111 0.657356
upperneck 11.1629 0.827098 -1.20255
head 5.68464 0.338224 -0.412927
rclavicle -8.05078e-015 -1.88845e-015
rhumerus -36.8671 -22.7422 -68.4287
rradius 21.746
rwrist 38.1165
rhand -23.3545 -26.3224
rfingers 7.12502
rthumb 3.10071 -56.2796
lclavicle -8.05078e-015 -1.88845e-015
lhumerus -34.9713 2.75032 83.531
lradius 19.5519
lwrist 18.2772
lhand -26.6446 -9.09772
lfingers 7.12502
lthumb -0.0768514 20.882
rfemur -31.1137 -0.278901 21.3579
rtibia 27.842
rfoot -12.5703 -1.33957
rtoes 7.50978
lfemur -31.2041 6.71977 -18.9364
ltibia 30.5049
lfoot -10.8965 5.62223
ltoes -9.8557
374
root 0.765746 17.685 10.9724 19.0888 -0.492273 -3.34953
lowerback 10.6888 0.818738 -1.23648
upperback 6.73229 0.97232 1.32929
thorax 0.975437 0.419665 1.97742
lowerneck -14.0681 0.589007 0.673296
upperneck 11.1824 0.830568 -1.22062
head 5.6901 0.339179 -0.420923
rclavicle 5.96354e-016 -9.93923e-016
rhumerus -36.596 -22.4276 -68.8077
rradius 21.8822
rwrist 37.9571
rhand -23.32 -26.2937
rfingers 7.12502
rthumb 3.13403 -56.2504
lclavicle 5.96354e-016 -9.93923e-016
lhumerus -34.771 2.63292 83.4656
lradius 19.8296
lwrist 18.7171
lhand -26.9005 -9.30608
lfingers 7.12502
lthumb -0.323975 20.6734
rfemur -31.0273 -0.286877 21.3563
rtibia 27.8172
rfoot -12.6011 -1.31392
rtoes 7.52017
lfemur -31.0663 6.68483 -18.9194
ltibia 30.4032
lfoot -10.895 5.6721
ltoes -9.86419
375
root 0.760461 17.6864 10.9847 19.0536 -0.490114 -3.33458
lowerback 10.6496 0.81979 -1.26554
upperback 6.70711 0.971779 1.32645
thorax 0.970062 0.418892 1.9911
lowerneck -14.0536 0.593897 0.688572
upperneck 11.1854 0.837905 -1.24692
head 5.6889 0.341434 -0.431085
rclavicle 9.24349e-015 -6.26172e-015
rhumerus -36.3244 -22.0968 -69.197
rradius 22.0473
rwrist 37.7493
rhand -23.2756 -26.2759
rfingers 7.12502
rthumb 3.17695 -56.232
lclavicle 9.24349e-015 -6.26172e-015
lhumerus -34.5805 2.51507 83.4074
lradius 20.115
lwrist 19.149
lhand -27.1354 -9.49205
lfingers 7.12502
lthumb -0.55086 20.487
rfemur -30.924 -0.310568 21.3631
rtibia 27.7858
rfoot -12.6323 -1.28762
rtoes 7.5296
lfemur -30.9221 6.64854 -18.8964
ltibia 30.308
lfoot -10.9003 5.70826
ltoes -9.89326
376
root 0.754896 17.6879 10.9968 19.0116 -0.475966 -3.32061
lowerback 10.6094 0.817039 -1.29328
upperback 6.68677 0.9664 1.32896
thorax 0.970409 0.415571 2.0101
lowerneck -14.0356 0.60129 0.700439
upperneck 11.1737 0.849942 -1.27872
head 5.68251 0.345465 -0.442016
rclavicle 8.24956e-015 2.98177e-016
rhumerus -36.0492 -21.7512 -69.5949
rradius 22.238
rwrist 37.4711
rhand -23.2458 -26.2534
rfingers 7.12502
rthumb 3.20573 -56.209
lclavicle 8.24956e-015 2.98177e-016
lhumerus -34.3913 2.3908 83.3612
lradius 20.4008
lwrist 19.5774
lhand -27.335 -9.67747
lfingers 7.12502
lthumb -0.743668 20.301
rfemur -30.8096 -0.335117 21.3728
rtibia 27.7479
rfoot -12.6607 -1.2727
rtoes 7.54131
lfemur -30.7781 6.61608 -18.8707
ltibia 30.2199
lfoot -10.9101 5.72694
ltoes -9.92495
377
root 0.749196 17.6895 11.0086 18.962 -0.449514 -3.30845
lowerback 10.5663 0.810967 -1.31609
upperback 6.67284 0.957128 1.33648
thorax 0.979226 0.410242 2.032
lowerneck -14.0133 0.609642 0.704931
upperneck 11.1469 0.864785 -1.31182
head 5.67069 0.350508 -0.451919
rclavicle -1.27222e-014 -4.17448e-015
rhumerus -35.7744 -21.3875 -70.0012
rradius 22.4577
rwrist 37.1099
rhand -23.2295 -26.2377
rfingers 7.12502
rthumb 3.22145 -56.1931
lclavicle -1.27222e-014 -4.17448e-015
lhumerus -34.1998 2.25866 83.3285
lradius 20.6804
lwrist 19.9969
lhand -27.5064 -9.91723
lfingers 7.12502
lthumb -0.909146 20.0606
rfemur -30.6832 -0.363423 21.3865
rtibia 27.7038
rfoot -12.6878 -1.26556
rtoes 7.5589
lfemur -30.6333 6.58717 -18.842
ltibia 30.1396
lfoot -10.9242 5.72928
ltoes -9.95257
378
root 0.74335 17.6911 11.02 18.9078 -0.416619 -3.29606
lowerback 10.518 0.804138 -1.33609
upperback 6.66627 0.947143 1.34549
thorax 0.998659 0.404456 2.05404
lowerneck -14 0.619794 0.707665
upperneck 11.1159 0.88283 -1.34867
head 5.65908 0.356735 -0.462418
rclavicle -1.88845e-015 2.48481e-015
rhumerus -35.4986 -21.0105 -70.418
rradius 22.7024
rwrist 36.6703
rhand -23.241 -26.2311
rfingers 7.12502
rthumb 3.21032 -56.1867
lclavicle -1.88845e-015 2.48481e-015
lhumerus -33.9983 2.12264 83.3036
lradius 20.9553
lwrist 20.3922
lhand -27.6517 -10.121
lfingers 7.12502
lthumb -1.04952 19.8562
rfemur -30.5514 -0.39043 21.4007
rtibia 27.6569
rfoot -12.7146 -1.26861
rtoes 7.57755
lfemur -30.4922 6.56442 -18.8141
ltibia 30.0681
lfoot -10.9403 5.71802
ltoes -9.97119
379
root 0.737393 17.6925 11.0309 18.8498 -0.376517 -3.284
lowerback 10.4662 0.796043 -1.35115
upperback 6.66507 0.935937 1.35466
thorax 1.02573 0.398089 2.07366
lowerneck -13.9951 0.632029 0.707826
upperneck 11.0835 0.903933 -1.38416
head 5.64848 0.364425 -0.471784
rclavicle -6.16232e-015 -1.78906e-015
rhumerus -35.2179 -20.6432 -70.8358
rradius 22.9532
rwrist 36.1907
rhand -23.2825 -26.2227
rfingers 7.12502
rthumb 3.17033 -56.1789
lclavicle -6.16232e-015 -1.78906e-015
lhumerus -33.7909 1.99011 83.2806
lradius 21.2278
lwrist 20.7509
lhand -27.7719 -10.2965
lfingers 7.12502
lthumb -1.16561 19.68
rfemur -30.4151 -0.417852 21.4164
rtibia 27.6089
rfoot -12.7422 -1.2801
rtoes 7.59997
lfemur -30.3554 6.54819 -18.787
ltibia 30.0049
lfoot -10.9567 5.69519
ltoes -9.98747
380
root 0.731472 17.6938 11.0414 18.7888 -0.329279 -3.26919
lowerback 10.4126 0.786684 -1.36031
upperback 6.66762 0.923572 1.36052
thorax 1.05789 0.391306 2.08667
lowerneck -13.9901 0.642039 0.704642
upperneck 11.0458 0.921443 -1.41125
head 5.63608 0.370894 -0.478271
rclavicle 6.4605e-015 3.08116e-015
rhumerus -34.9394 -20.2686 -71.2597
rradius 23.2157
rwrist 35.6787
rhand -23.3429 -26.2209
rfingers 7.12502
rthumb 3.11192 -56.1779
lclavicle 6.4605e-015 3.08116e-015
lhumerus -33.5771 1.85621 83.2571
lradius 21.4972
lwrist 21.0635
lhand -27.8647 -10.4127
lfingers 7.12502
lthumb -1.25528 19.5634
rfemur -30.277 -0.450677 21.4313
rtibia 27.5629
rfoot -12.7737 -1.29705
rtoes 7.62146
lfemur -30.2229 6.53405 -18.7642
ltibia 29.9503
lfoot -10.9739 5.66763
ltoes -10.0124
381
root 0.725581 17.6948 11.0515 18.7269 -0.281173 -3.2504
lowerback 10.3579 0.777472 -1.36856
upperback 6.67156 0.91148 1.36264
thorax 1.09221 0.384724 2.09527
lowerneck -13.998 0.650649 0.702752
upperneck 11.0195 0.936303 -1.43423
head 5.62939 0.376357 -0.483882
rclavicle 1.02871e-014 2.08724e-015
rhumerus -34.6616 -19.8955 -71.6817
rradius 23.4766
rwrist 35.1674
rhand -23.4297 -26.2069
rfingers 7.12502
rthumb 3.02811 -56.1652
lclavicle 1.02871e-014 2.08724e-015
lhumerus -33.3601 1.73196 83.2298
lradius 21.7625
lwrist 21.317
lhand -27.9368 -10.4825
lfingers 7.12502
lthumb -1.32487 19.4931
rfemur -30.1405 -0.485206 21.4421
rtibia 27.5204
rfoot -12.8092 -1.31675
rtoes 7.63786
lfemur -30.0952 6.52493 -18.7488
ltibia 29.9018
lfoot -10.9908 5.63784
ltoes -10.0355
382
root 0.71958 17.6954 11.061 18.6698 -0.233611 -3.23033
lowerback 10.3036 0.769523 -1.37774
upperback 6.67033 0.900995 1.36306
thorax 1.1208 0.379045 2.10241
lowerneck -14.0052 0.657206 0.706334
upperneck 11.0008 0.947148 -1.45548
head 5.62495 0.380212 -0.490194
rclavicle 3.27995e-015 9.64106e-015
rhumerus -34.3904 -19.5167 -72.0968
rradius 23.732
rwrist 34.6741
rhand -23.5361 -26.1811
rfingers 7.12502
rthumb 2.92533 -56.1408
lclavicle 3.27995e-015 9.64106e-015
lhumerus -33.1447 1.61064 83.2022
lradius 22.0144
lwrist 21.5228
lhand -27.9767 -10.5184
lfingers 7.12502
lthumb -1.36339 19.457
rfemur -30.0142 -0.511509 21.4503
rtibia 27.4818
rfoot -12.8457 -1.34619
rtoes 7.64743
lfemur -29.9802 6.51913 -18.7374
ltibia 29.8598
lfoot -11.0055 5.61138
ltoes -10.0663
